<?xml version="1.0" encoding="UTF-8"?>
<svg id="Capa_2" data-name="Capa 2" xmlns="http://www.w3.org/2000/svg" viewBox="0 0 363.9 364.5">
  <defs>
    <style>
      .cls-1 {
        fill: #fff;
        stroke-width: 0px;
      }
    </style>
  </defs>
  <g id="Capa_1-2" data-name="Capa 1">
    <g>
      <path class="cls-1" d="m267.9,129.8c-64.8-39.4-132.1,2.6-145.9,86.2l-5.9,33c-2.3,4.5-6,8.9-11.1,13.1-20.9,16.7-42.3,35.8-61.4,55.7,39.6,29.4,88.6,46.7,141.5,46.7,31,0,60.7-6,87.9-16.8.2-16.7-2.6-34.5-8.7-53.3-4.3-38-17.3-76.4,10.9-109.2,8.8-8.9,21.1-15.7,33.4-18.5,24.8-5.5,37.3-4.7,55.3-5.8-15.4-22.7-45.2-35.1-96-31.1Z"/>
      <path class="cls-1" d="m43.81,244.97c.54,2.22.91,3.63,1.29,5.13,1.5.35,3,.75,4.41.71.1,0,.19-.01.29-.02,1.28-.09,2.47-.57,3.53-1.82.19.47.38.95.57,1.42l.02-.2c.03.07.05.14.08.2.2-2.2.4-4.4.7-6.6h.3c.5,2.2,1,4.3,1.5,6.5.03-.19.04-.39.07-.58.04.19.09.38.13.58,1.16-7.03.1-14.7.19-22.13,1.69,7.2,1.77,14.32,3.51,21.53-.04-.8-.09-1.6-.14-2.39.16.8.34,1.59.54,2.39-1.18-21.2-2.88-42.41-10.71-63.23-.74-2.06-1.52-4.12-2.39-6.17.72-2.22,1.6-4.31,2.24-6.49.37-1.17.69-2.36.86-3.61.5-3.9-1.6-7.6-3.9-10.2,1.3-3.1,2.9-5.7,3.5-8.8.57-2.72-.5-5.14-2.26-7.43-.66-.91-1.42-1.79-2.24-2.67.71-2.16,1.55-4.1,2.59-5.76,2.25-3.49,5.37-5.67,9.91-5.74h-.19c16.37-.3,32.83-.5,49.19-.8.88,0,1.86.19,3.12.39l11.08,47.71s.02-.1.07-.28c0,.13.02.25.03.38,0,.4,0,.8.1,1.2,1.33-5.78,3.23-11.38,5.62-16.76,3.42-7.23,8.58-16.14,16.1-24.82,15.91-17.82,38.64-30.26,64.87-33.32,23.9-2.8,46.8,2.6,65.5,13.9-.07-.09-.13-.18-.19-.26.06.04.09.06.09.06l-.8-1.1-24.19-43.41c27.2-24.2,54.29-48,82.29-72.49-8.6.7-16,1.3-23.5,1.9-41.1,3.7-82.2,7.4-123.4,11.1-12.3,1.1-24.6,2.3-36.9,3.3-2.9.2-5.3,1.4-7.5,3.1C94.8,54.6,49.9,89.9,5,125.1c-1.7,1.3-3.3,2.7-5,4,.1.3.2.6.3.9,15.3-.2,30.6-.3,46.8-.5-3.4,4.8-6.1,8.8-8.9,12.6-3,3.9-2.7,8.4.9,14.3-1.6,3.2-3.5,5.9-4.4,9.2-1.1,3.8.7,7.9,3.3,11.9-6.2,10.9-7.8,24.6-11.3,37.6.7.3,1.2.6,2.3,1.1-1.7,7.8-3.4,15.5-5.1,23.3.3.2.6.4.8.6.06-.18.12-.36.17-.54.26.18.45.36.73.54.98-3.12,1.89-6.16,2.85-9.2-.75,4.22-1.51,8.37-2.35,12.6.2.1.3.2.5.3.17-.31.34-.63.52-.95-.04.22-.08.43-.12.65.1.1.3.2.4.3.92-1.84,1.91-3.69,3.15-6.17-.33,3.3-.59,5.75-.85,8.27.3.3.7.5,1,.8.1-.08.19-.16.29-.23.1.08.2.15.31.23.69-.6,1.46-1.28,2.23-1.97.38.99.81,1.97,1.17,2.87.13-.16.27-.2.42-.18.02.06.05.12.08.18.04-.06.08-.09.12-.12.54.24,1.18,1.07,1.82.88.39.11.79-.04,1.16-.86.26-.6.55-.91.84-1,.83.22,1.71,1.86,2.36,3.5.05-.12.1-.24.15-.37.05.12.1.24.15.37.65-1.58,1.22-2.99,2.01-5.03Z"/>
    </g>
  </g>
</svg>